/* XPM */
static char *_68dfb57df5b4c6ab421eab4d59e8266kJoovkYffzW2AdUQ[] = {
/* columns rows colors chars-per-pixel */
"75 75 246 2 ",
"   c #010201",
".  c #000A00",
"X  c #050109",
"o  c #0B030C",
"O  c #080406",
"+  c #021401",
"@  c #011B00",
"#  c #0B1908",
"$  c #0F0D11",
"%  c #002200",
"&  c #052903",
"*  c #053301",
"=  c #112B0D",
"-  c #1B4E13",
";  c #304E2E",
":  c #2C6725",
">  c #347728",
",  c #33742C",
"<  c #22521D",
"1  c #446E3A",
"2  c #43783B",
"3  c #4C6B46",
"4  c #52724D",
"5  c #61725E",
"6  c #0D9605",
"7  c #0D9906",
"8  c #0E9908",
"9  c #0B9507",
"0  c #139B0C",
"q  c #14970B",
"w  c #1B9512",
"e  c #1C9C15",
"r  c #1D9D19",
"t  c #189914",
"y  c #1C8C15",
"u  c #248C1D",
"i  c #23851B",
"p  c #23921B",
"a  c #249A19",
"s  c #16A20E",
"d  c #16A114",
"f  c #1AA214",
"g  c #24A21A",
"h  c #2A8222",
"j  c #2C8C23",
"k  c #258B21",
"l  c #358A2B",
"z  c #348929",
"x  c #2C9426",
"c  c #34922C",
"v  c #359629",
"b  c #3B8A36",
"n  c #3B9233",
"m  c #3A9434",
"M  c #2AA422",
"N  c #3BAC2E",
"B  c #35A62B",
"V  c #39B12F",
"C  c #3DAD32",
"Z  c #3FAA38",
"A  c #3CB132",
"S  c #35B230",
"D  c #44833D",
"F  c #448C3B",
"G  c #448C3A",
"H  c #429237",
"J  c #45933C",
"K  c #49933F",
"L  c #489C3D",
"P  c #43AD34",
"I  c #45AD3A",
"U  c #4AAC3C",
"Y  c #45A43A",
"T  c #44B335",
"R  c #45B935",
"E  c #45B23A",
"W  c #4BB33C",
"Q  c #4CBB3B",
"!  c #47B838",
"~  c #51BB3F",
"^  c #47AB33",
"/  c #4DC33D",
"(  c #47C53A",
")  c #51C43E",
"_  c #498B42",
"`  c #4B9343",
"'  c #4C9A45",
"]  c #4B9645",
"[  c #54954B",
"{  c #539B4B",
"}  c #549647",
"|  c #5B9D54",
" . c #5B9856",
".. c #568950",
"X. c #639D5B",
"o. c #608E5D",
"O. c #4CAB42",
"+. c #4CA945",
"@. c #53AB45",
"#. c #5AAC4B",
"$. c #55A74A",
"%. c #4DB443",
"&. c #54B344",
"*. c #53BC44",
"=. c #55B44A",
"-. c #5BB34B",
";. c #5CBC4D",
":. c #58B948",
">. c #5CA355",
",. c #5DAC53",
"<. c #5FA359",
"1. c #56A651",
"2. c #5EB452",
"3. c #5EBC53",
"4. c #59BC54",
"5. c #60BC4F",
"6. c #61B54C",
"7. c #63A35B",
"8. c #64AD58",
"9. c #62B454",
"0. c #62BC54",
"q. c #65B35B",
"w. c #64BD5A",
"e. c #6ABC5C",
"r. c #6AB45B",
"t. c #6A9C65",
"y. c #6AA664",
"u. c #6CB263",
"i. c #6DBD63",
"p. c #69B965",
"a. c #73B36C",
"s. c #75B969",
"d. c #77A572",
"f. c #7CB874",
"g. c #72A96B",
"h. c #4DC742",
"j. c #54C344",
"k. c #5DC44C",
"l. c #5CCB4C",
"z. c #58C747",
"x. c #5DC353",
"c. c #5CC852",
"v. c #61CB4D",
"b. c #60C54D",
"n. c #63C454",
"m. c #64CB53",
"M. c #65C45A",
"N. c #6AC45C",
"B. c #66CA5A",
"V. c #6BCB5B",
"C. c #69C856",
"Z. c #71CB5F",
"A. c #6AD359",
"S. c #70D45F",
"D. c #60D14D",
"F. c #6CC462",
"G. c #6DCB61",
"H. c #73C565",
"J. c #73CB64",
"K. c #75C46A",
"L. c #75CC6A",
"P. c #7ACC6D",
"I. c #79C76A",
"U. c #73D364",
"Y. c #76D56A",
"T. c #7BD46B",
"R. c #7CDA6C",
"E. c #78D866",
"W. c #7ECC73",
"Q. c #7DC575",
"!. c #7DD372",
"~. c #7EDB71",
"^. c #7ED17B",
"/. c #6FD160",
"(. c #7FE26E",
"). c #83B87B",
"_. c #81DC6E",
"`. c #83CC75",
"'. c #85CD7B",
"]. c #89CC7D",
"[. c #84C37A",
"{. c #82D375",
"}. c #82DA73",
"|. c #85D47B",
" X c #8AD37D",
".X c #85DA7A",
"XX c #89DA7E",
"oX c #89D776",
"OX c #91D87E",
"+X c #87E178",
"@X c #93BA8D",
"#X c #A1BE9F",
"$X c #8BCC83",
"%X c #8ECA8A",
"&X c #8BC686",
"*X c #94CD8C",
"=X c #99CE8D",
"-X c #91C987",
";X c #8CD483",
":X c #8DDA84",
">X c #8DD787",
",X c #92D486",
"<X c #92DB85",
"1X c #94D38B",
"2X c #99D28E",
"3X c #95DC8B",
"4X c #99DD8E",
"5X c #98CB93",
"6X c #9BD393",
"7X c #9BDB92",
"8X c #9BD695",
"9X c #A4D799",
"0X c #A3CD9C",
"qX c #8DE182",
"wX c #99E38D",
"eX c #9CE292",
"rX c #A5E49B",
"tX c #AAE39D",
"yX c #A6E898",
"uX c #AAC8A8",
"iX c #ABD5A5",
"pX c #ACDBA4",
"aX c #A8D6A4",
"sX c #B4DBAB",
"dX c #BADDB5",
"fX c #BDDDBA",
"gX c #B9D7B5",
"hX c #B3C8AE",
"jX c #ADE4A2",
"kX c #ADEAA4",
"lX c #B2E4A5",
"zX c #B1EAA5",
"xX c #B4E5AA",
"cX c #B4EBAB",
"vX c #B9E3AA",
"bX c #B4F3AB",
"nX c #BBE6B5",
"mX c #B7F5AF",
"MX c #9FC1A0",
"NX c #C2DBBE",
"BX c #C1D4BD",
"VX c #C2E8BC",
"CX c #C2F4BB",
"ZX c #C5D9C3",
"AX c #CAE4C6",
"SX c #D1E8CC",
/* pixels */
"r t t d f g w =.3X=X5X5X1X<X!.v p a 0 s f w v W U O.O.%.+.1.$X%X5X%X%X%X%XaXfXfXZXBXBXNXjX XR.E.E.S.E.E.Z.Z.H.J.J.I.I.J.H H H J G ` G g.2X2X5X=X=X=X=X",
"r r d s e e p =.4X=X5X6X*X;XT.v a e s s f 0 N U U U A %.+.1.$X%X%X%X%X%X5XaXfXZXZXZXNXdX9XOX{.R.R.E.(.(.T.J.J.I.I.Z.Z.H.H L J J K ] G u.2X-X-X9X=X=X=X",
"e e d s s a p -.3X&X5X5X=X1X{.v a 0 s 8 s 0 B E I I Z %.O.+.$X%X%X%X5X%X%XaXfXfXZXZXNXdXlX,XoXR.R.T.R.~.T.H.H.I.J.I.I.I.H J ` J F K b g.7X1X=X=X=X=X=X",
"e e 0 s e a p &.7X*X5X6X=X,X`.c r d s d f f B W I %.Z I O.$.].-X%X%X%X%X%XaXfXZXZXZXNXfXlX,X{.R.~.~.~.~.P.J.J.J.J.J.J.I.J G ` ` F K G u.2X2X2X-X=X=X=X",
"a 0 s 0 g w y -.<X*X2X*X-X,XoXH p e f d e w B U U U I O.+.$.].-X%X%X5X%X%XaXfXfXNXNXgXdXjX].|.+X~.~.~.~.Y.G.J.S.U.G.J.F.J J J G ` ` D u.,X%X*X2X=X=X=X",
"g e f f a a p 0.:X;X*X*X,X3X`.z p r d t e w N W U W U W +.#.].,X%X%X%X%X%XMXnXfXNXgXfXvXkX X{.R.R.~.(.~.Y.G.Z.S.V.G.U.H.L ` ` } ` _ D s.7X1X;X>X,X,X,X",
"q w e q q a w ~ wX3X1X3X4XwX`.v w t t 0 e t B P ^ E E E U @.`.].>X%X%X%X8XaXcXnXfXVXnXxXtX<X}.R.~.R.(.~.U.V./.V.Z.U.L.e.[ , , _ _ 2 _ u.1X3X3X3X,X,X1X",
"N T V B R ^ v ~ #.2.8.,.,.#.9.P C S S S A B P E ^ W I E I U L.W.^.Q.^.Q.Q.f.).f.).).).f.Q.P.T.Y.Y./.Y.Y.V.C.n.n.C.N.w.s.f.f.).@Xf.).a.u.y.,.2.,.9.,.8.",
"c.x.c.c.c.c.x.+.i h h h h h k 4.m.z.c.c.x.c.&.^ ^ I Z Z U O.w.F.p.p.F.p.K.| D D D 2 _ > H J.U.S./.U.S.E.C.;.;.-.-.r.8.y.cXnXnXVXnXbXmXa., h > h h h h ",
"4.j.4.x.j.4.4.Z i j x j k k c 4.x.:.4.:.4.x.W Y Y I I %.O.+.F.G.F.w.F.F.K.1.G F ` ` ` K J G.U.U.S.S.S.E.C.:.;.5.-.9.r.a.pXnXfXNXdXsXnXa., j j j j j j ",
"x.x.4.w.4.x.M.Z u x k k x k u :.x.0.n.4.4.w.&.Y I ^ Z I Z Z N.M.G.B.F.F.J.#.H K G G K J L U.Y.V.S.S.S.S.m.*.:.;.0.0.8.u.pXnXdXgXfXdXmXa., x x k u u u ",
"4.4.w.4.4.4.x.m y k k u x u x x.n.x.w.4.M.w.&.P W I E I O.Y C.b.M.M.G.M.H.$.n n K G K H m J.Y./.A.A.A.S.b.*.:.;.-.9.9.u.kXxXnXnXfXfXCXa.> k k u j a p ",
"w.4.w.w.w.w.M.+.k y v k p k x 4.x.:.x.4.w.n.U ^ ^ ^ T N I I v.S.B.N.N.F.J.#.n G J H ` J L I.H.~.S.S.S.S.C.=.;.;.0.q.8.a.jXxXnXdXfXfXnXa.> j p p p p p ",
"4.p.w.w.w.x.F.Z y u p y x k k 4.F.x.p.p.i.i.#.U U ^ U Y @.U n.n.N.N.F.N.H.$.H ` G G G G J {.P.P.R.T.T.T.H.r.r.9.u.8.y.f.9XnXnXgXNXdXnXa.> j u p p p p ",
"w.0.q.w.4.p.N.Y u x k k x k m ,.y.y.y.y.y.y.X.} } ` } } } ` `.s.F.N.J.F.L.$.b F K ` G G { u.K.K.s.f.a.f.a.7.7.y.y.t.t.d.dXNXNXZXZXdXnXa.j x p p p p p ",
"~.}.oX|..X|..Xw.%.A %.%.I %.1.* % @ @ @ @ @ @ @ @ % @ @ # * ).,X X|.XX|.:Xp.] } } ` } [ _ * % & % @ % % @ @ + @ @ @ + = fXSXZXZXAXnXCX'.L W T T T E U ",
";XXX X;X;X X.XB.W Q R R R &.| % . . . . . .           .   @ @X=X%X>X>X^.;Xp.] { } } } ....@ . . . . .                 # gXAXAXSXSXVXCX`.U W R R R R R ",
"'.;X X;X,X$X.XC.I ! T R R %.>.@         .   X o o o X     + &X1X-X;X>X>X>Xp.` ] { } }  ...+ . . . .     X X       X O # BXVXNXZXAXVXCX`.U Q R ( R R T ",
" X;X;X;X,X X.XB.^ Q R R R %.>.% .           X X         . @ &X,X X X+X.XqXw.` { } } }  ....                           . BXVXSXSXZXNXVX].$.W T R R R T ",
"|.:XXX|.,X X.XC.^ Q R ! R &.>.@                     . . . @ @X X X}.^.^..Xq.] { { [ [ ..o.+                 .         + NXVXAXAXSXVXVX].$.W Q T R R R ",
"XXXX XoX X X.Xm.I Q ! R R %.| @     X X         .   . .   @ @X3X:X.X.X.XqXr.] [ | { [  ...+   X     O     O   .       + NXCXAXAXVXVXCX].L ~ Q R R R T ",
".X.X.X|.XXXX+XC.I Q T R R %.| @ .   X X                   @ @X;X.X~..X~.XXr.` ' ' ' ] [ ..+   X   O   O O             # sXVXAXAXVXVXCX`.U ^ ! R R R T ",
"U.J.G.L.P.J.E.k.W Q Q Q Q *.>.% .                         + ).W.L.L.L.G.T.9.L +.+.Z +.] ..@ .     O   O O             # 5X9X9X9X2X4XwXZ.-.Q ( ( Q Q Q ",
"3.x.0.M.N.3.C.j.j.z./ ) / :.,.% .                   X o X + a.w.p.M.M.;.C.=.N O.Z I Z +.} @ .                         @ d.Q.f.f.).s.Z.C.~ ) ) ( ) ) ) ",
"B.n.n.C.M.B.C.z.*.Q z.j./ :.>.& . .       .       X X X   + r.B.x.F.M.n.B.:.P ^ C A Z +. .@ .               .         @ a.I.P.I.J.J.A.k.) / ( ( ) / Q ",
"m.b.c.n.x.n.c.j.z.Q Q Q h.k.8.% .       .           o X   % #.m.F.F.n.n.m.~ P T T C Z +.[ %   X   .                 . @ s.L.J.Z.Z.V.A.k.) ) ) ) ) / ) ",
"n.m.m.m.n.m.c.z.*.j.z.z.j.z.8.%     X           X o X     @ e.C.M.B.x.m.m.~ N T C Z O.$...+ . X       X X X   X X     + ).I.Z.Z.Z.J.V.k.) ) ~ / ) ) / ",
"b.n.m.k.n.M.c.z.*.*.j.*.Q *.8.% . X X X     o X   X O O   @ u.N.M.x.k.m.m.W P ^ W I L #. .@           X   X     X X . + ).I.Z.Z.V.G.U.b.z.z.z.) ) ) ) ",
"n.C.n.n.B.B.n.k.:.4.:.*.j.x.>.% .       .         . . .   @ d.s.H.G.B.V.V.:.O.O.U @.#.' | @ . .             . .     . @ s.`.Z.Z.G.J./.x.*.:.*.*.j.j.*.",
"n.C.n.x.N.N.n.x.:.x.x.:.k.x.>.* @ + + @ @ + # # + % % @ + = t.).u.8.8.q.q.>. .{ [ } | } ..% @ + . # # # @ @ + @ + + + * r.S.Z.Z.G.V.G.x.3.;.;.;.;.;.;.",
"-.-.-.-.9.-.-.x.~.Y.T.Y./.T.$X .>.| X.7.X.t.d.@X&Xf.].[.@X).= + @ @ @ @ @ @ + + + & + @ * #XhXhXhXhXuX0Xg.3 b 3 3 _ 4 b M.m.b.m.m.x.B.B.U.Y.Y.T.T.!.!.",
"#.-.-.-.-.=.-.N.~.^.!.~.~.!.'.u.q.9.9.q.8.8.).4X XXXXX X0XMX+ .         .         . . . + hXNXBXgXsXsXnX@X, ` b _ _ D H x.l.l.l.m.z.x.S.R.~.!.!.{.{.!.",
"9.-.6.-.6.9.#.N. X{.{.W.oX{.W.8.,.q.9.9.8.,.s. X X.XXX$X6X@X+ .                         # uXdXiXiXpXpXsXd.D _ _ _ b b m l.l.l.l.l.v.m.V.E.~.!.`.'. X`.",
"#.6.,.-.6.9.#.H.`.`.`.`.'.`.W.9.,.2.#.#.6.#.I.OX{.|.^.'.9X@X@             .     O X     + hXNXpXpXpXiXvXf._ _ D _ _ m v k.l.l.l.z.z.b.V.Y.{.{. X'.'.'.",
"9.9.#.,.9.9.#.s. X`. X`.{.`.`.9.2.2.-.6.6.#.s.oX;X:X:X'.*X@X@ .                       O # hXdXsXsXiXiXsXf., K G b G n c k.l.l.k.M.c.x.G.{.}.`.'.^.$X'.",
"8.#.9.-.2.9.$.s. X'.].].'.`.`.9.#.=.6.#.6.#.s.OXW. X'.[.=X@X+ .                     O   + hXgXuXsXuXgXVXg.b H H G b n m 0.C.N.B.M.x.M.K.{.{.`.'.].].'.",
"9.9.9.2.9.9.,.K.].'.'.'.`. X`.,.2.2.0.2.6.r.[.4X9XeX8X8XiX#X#                     X     # hXSXNXAXZXAXVX).z z z z z j c 0.0.r.r.F.w.w.K.{.`.'.].].].].",
"$.{ $.$.$.$.{ p.,X].-X$X].;X'.$.+.+.+.+.L >...1 1 3 2 3 3 3 .                     X X   O 5 5 5 5 5 5 4 [ #.@.U @.@.@.@.P.'.].;X$X^.^.^.;X;X].;X;X$X].",
"F H b H H J F ,.4X1X3X,X,X1X'.} H H G K ` ..< . . . . . . .   X                     X X O .   . . . . . : P.S.m.V.B.N.J.wXyXrXjXrXrX7X4X3X1X,X,X,X,X*X",
"K K K J J J ` u.4X%X2X,X,X3X$X] _ K K ` D o.; . . . .       X X                 X       O . . .     . . , P.b.m.C.C.B.V.eX9X9XaX9XjX9X2X*X%X2X2X,X,X,X",
"K K ` J J ` F u.3X*X1X1X1X1X$X] ` J J ` ..o.;               X                       X                 . , T.m.m.C.m.n.N.7XtXpXiX0XlXpX9X-X2X2X,X2X,X,X",
"` ` ` J ` ` _ u.8X1X5X1X1X8X%X` K ` ` ` _ o.; .             X                                   O     . , U.v.D.m.C.C.Z.7X9X9XsXsX9X9X0X9X=X=X=X2X1X2X",
"` ` ` _ ` ` D u.8X%X*X*X%X1X%X[ F J J J _  .;                                                         . , I.v.m.A.B.C.N.eXjXiXsXsX9X9X9X=X=X=X=X2X*X1X",
"` ` ` ` ` ` _ u.8X>X5X*X5X8X%X] ` J J ] ` ..; .                                               O O       : _.C.m.V.C.m.B.eX9XpX9XpX9XpX9X-X=X=X=X*X1X1X",
"` _ ` _ _ ` _ a.8X5X5X5X5X2X&X[ ` ` J ` _  .; .                                                     X . > I.5.C.C.n.C.N.<X8X9X9X9X6X9X6X2X9X=X=X2X2X=X",
">.>.>.>.>.<. .[.cXjXkXxXkXcXrXy.>.<.1.1.| y.; .     O                                                 . : H.6.5.-.;.:.&.1.] { [  .[ [ ).tXtXlXlXlXlXlX",
">.>.>.>.<.<. .[.bXcXkXxXxXcXrXX. .7.<.1.<.g.; .   O X                                                 . : s.-.-.9.;.:.;.' ] [ } } ` G f.bXzXcXzXlXxXxX",
"<.<.<.<.<.7.| [.cXxXxXxXcXcXjXt.y. .<.<.X.d.;       O   X   X                                       X . : H.-.0.9.=.:.;.J ] { ` ' { F [.bXjXzXlXvXvXvX",
" .y.<.| 7.7.| [.cXxXxXpXmXcX9Xy.X.<.>.1.| d.; O . .       X o X             O O             O O   O X . : a.,.4.q.,.6.-.L L } ' ] { ` Q.bXcXvXvXvXvXvX",
"<.<.<.<.7.7.[ [.cXxXcXlXvXxXjXy.X.<.<.1. .g.;       .     O             X   O O               O O     . : i.4.4.9.9.6.6.L ' ] ' { ' F f.cXjXjXvXvXvXvX",
"<.<. .<.7.| X.[.cXtXbXkXkXcXlXX. .7.>.>. .d.; X         O o   .       X   X           .   O           . : N.-.;.2.9.6.6.L L ' { { ` _ Q.bXkXzXbXvXlXlX",
">.{ | 1.$.{ | Q.mXkXbXkXkXzXyX7. .| 1.{ 1.g.; X         O       .   . . . . O O .   . . . .   X     . + : F.3.0.9.0.5.-.L J J L ' J m Q.kXbXkXkXzXzXzX",
"e.w.w.w.N.e.N.L.+XXXXX.XXXXX.Xe.e.N.C.b.i.f.,     X     X . 3 3 1 1 1 1 1 1 1 1 4 4 4 4 4 .     X X   . < 1.L Y L Y Y ^ 6.@.=.=.&.=.O.N.+XqXXXXX.XXXXX",
"}.}.+X}.+X_._.Y.3.n.n.M.B.C.V.Y._._._.R.R.4X3 .         X # 5X9X9X7X9X4X9X9XvXvXsXsXgXNXhX#   X X o X   - D h h z > j j C.N.N.C.C.V.n.M.V.c.M.B.M.C.M.",
"R.E.~.~.R.R.R.A.V.V.V.A.C.n.V.R._._.E.E.R.OX, O . X . . . + @X X].].OX].$X2X=X6X0X0X0XiX#X.   O   X X . - J z z b z j j n.N.C.n.x.B.m.m.M.M.B.V.B.V.B.",
"+XR.R.R.~.R._.U.C.c.m.m.m.m.C.E._._._.R._.qX3 .   X       % [.|.].$XOX].].2X9X9X9X0X9XuXuX# .     X   . - F z z z z z v e.N.C.C.m.M.n.M.B.A.B.m.m.m.m.",
"_.E._._._._._.Z.m.D.l.m.m.m.V.R.E._.}.}.P.3X3 . X X   O O . &X].OX X X;X;X1X2X8X9X=XiXuXMX+ .         . - F > b b z j j N.N.n.C.C.C.n.m.C.C.C.A.m.m.m.",
"_.`._._._._._.S.v.m.D.D.D.D.A.R._.`.T.|._.3X1 .   O o   O # ).OX]. X X X|.>X7X9X9X0X5XiX#X& . .       . - F h l b z j j B.C.C.C.C.C.C.m.m.m.m.v.D.v.A.",
"_._._.`._._._.A.l.D.D.D.v.v.v.E.E._._._.{.<X2 + . . .     + &XoXoXoXoXoX X,X4X9X0XpXaXaX#X+       . . . - _ l l z z j x M.B.C.C.n.b.C.v.m.A.D.D.D.D.v.",
"_.`._.`.oXoXoXZ.n.m.D.v.v.m.m.+X_.oXoXoXoX<X2 + % % @ % + * K.R.S._.E.I.P.oX<X,X,X$X%X2X%X& @ % @ @ @ % - b l c l l x x x.M.M.e.C.C.C.C.m.m.C.v.v.m.v.",
"7XyXyX7XyXyXyX`.U #.~ ~ ;.#.9.<XyXyXyXyXwXyX].a.u.u.u.y.a.2.x 8 w t t t w B +.Z U =.+.+.@.9.r.8.9.r.u.8.4.z.%.*.:.~ ~ ~ Y.{.W.!.!.P.P.N.6.6.6.-.-.~ #.",
"tXtXtXtXvXtXyX`.#.#.#.6.=.#.8.yXtXtXyXtXyXyX].e.e.J.L.F.H.m.7 7 9 9 9 9 9 x A A T B N V C v.v.v.b.C.Z.N.z.( ( h.~ *.~ *.U.T.W.`.{.W.{.i.@.#.U #.-.#.-.",
"tXtXtXtXtXtXtX`.#.#.#.#.#.#.8.eXrXkXzXyXyXyX Xe.B.B.4.F.N.;.e 6 8 9 8 9 9 r A C T C R N A j.v.v.D.z.b.n.h.h.h.) ) ) / j.U.!.^.^.W.P.}.i.@.6.6.#.#.&.#.",
"tXtXlXtXtXtXlX`.$.#.6.~ #.6.8.eXtXtXtXtXtXyX Xe.0.C.G.M.J.b.q 7 7 7 8 q 9 M A N C T B C T z.z.D.) l.l.c.h.( h.( ) ~ Q h.Y.!.^.^.{.P.{.N.@.#.#.~ 6.-.&.",
"tXtXlXtXlXtXtX`.#.#.-.#.6.#.8.wXtXtXtXtXeXkX;Xw.G.B.C.N.M.x.0 7 7 7 7 7 9 g V N V N V N T z.l.l.l.D.l.l.h.( h.h.h.h.*.z.U.^.^.^.^.Q.{.w.@.-.=.@.-.-.&.",
"tXtXtXtXtXtXtX`.$.#.-.@.#.#.6.yXtXtXtXyXjXkX$Xp.e.n.e.N.M.c.q 6 7 7 7 7 q g V V C N T V P z.z.l.z.z.l.l.h.h.h.( Q h.*.*.U.!.^.^.^.W.{.N.#.;.:.&.&.#.#.",
"tXtXtXtXtXtXyXoX$.-.&.=.~ @.9.wXzXlXtXtXjXkX>Xp.J.J.Z.F.F.c.e 6 7 7 8 q q g V V A C A N T l.l.v.l.l.l.l.z.j.h.h.j.h.j.:.Y.^.^.^.Q.W.^.w.@.&.=.&.:.&.&.",
"9X4X9X4X7X<X4X`.#.6.;.;.#.6.9.<X4X9X4X4X7X7XK.$.U U @.@.+.E w 8 7 7 8 6 9 e M M M M M M B j.z.b.l.k.k.l.*.T ! T E T Q =.^..X.X>X:X;XXXF.-.5.-.:.-.-.-.",
"1X,X>X>X,XOX<XH.3.3.;.;.-.0.0. XOXOX;X;X,X>X<.l z v l z c x q 9 7 9 7 7 q 0 f e e e a e a *.z.z.b.) 5.) ! N P P P N P @..XwXeXeXwX3XwXW.9.0.0.;.5.5.5.",
">X>X>X3X1X,XqXK.2.;.3.;.;.0.w.|.,X=X;X:X1X3Xu.l v n n n c x w 9 7 7 7 q 9 t e t r e r a x z.k.b.b.b.b.5.~ P T P T P Y U qXwX4X3X4XwXwXP.9.;.5.;.5.5.0.",
">X>X>X>X>X;X<XL.3.;.;.x.;.0.0.oX,X,X:X;X>X3Xp.l v l n n n x w 6 9 8 8 9 q 0 d d t e r w a j.k.b.5.b.b.z.R P P P P I I O.qXwX7X4X4X4XeXP.9.3.0.n.b.;.5.",
":X>X>X>X>X;XqXK.2.;.k.;.;.0.e.|.OX,X>X;X:X<Xq.l n n b n n c w 9 8 8 8 8 0 0 d d e f a t a z.k.k.5.b.b.b.~ P P T P I ^ +.:XqX4X7X7X3XeXP.-.0.;.5.5.;.5.",
":X:X>X;X,X:XXXJ.-.0.:.k.5.0.9.oX>X:X:X:X>X3Xu.l n n m b m c y 8 7 6 q 8 8 0 d d d t r e p z.k.k.b.b.5.b.~ P P P P P P O.qXwX4X7X7X7XwXW.2.0.;.5.5.5.;.",
">X;X>X>X<X:X:XJ.-.n.;.;.5.5.0.oX:X:X:X^.>X3X,.l H c m b m c w q q 9 8 7 8 0 d d d e r r a j.z.k.*.b.b.b.Q P P N T P I O.qXwX7X7X7X3XwXP.2.3.5.;.;.b.5.",
"XX:X:X,X,X<X<XH.-.b.;.;.0.0.0. X:X>X:X;X:XwXu.l n n b n m x y 8 8 9 8 8 8 8 d d d d r r a z.c.z.k.5.k.k.Q P P P A P Y +.qXwX7X7X7X7XwXP.2.3.;.4.;.;.5."
};
