/* XPM */
static char *_7489_0418798f748a7aea5191adf4615c88e6ad0ff325abea8144deb721da28d812b2[] = {
/* columns rows colors chars-per-pixel */
"90 90 165 2 ",
"   c #2E0E0E",
".  c #3E0505",
"X  c #350A0A",
"o  c #3C0B0B",
"O  c #2E1414",
"+  c #251B1B",
"@  c #2B1A1A",
"#  c #331515",
"$  c #3B1414",
"%  c #331C1C",
"&  c #3B1D1D",
"*  c #1C2323",
"=  c #242121",
"-  c #2E2323",
";  c #252D2D",
":  c #2D2C2C",
">  c #342222",
",  c #3A2323",
"<  c #312C2C",
"1  c #3D2929",
"2  c #273030",
"3  c #2C3434",
"4  c #2E3939",
"5  c #333535",
"6  c #333B3B",
"7  c #393A3A",
"8  c #440202",
"9  c #4C0202",
"0  c #410C0C",
"q  c #540202",
"w  c #5C0101",
"e  c #431010",
"r  c #491414",
"t  c #401C1C",
"y  c #4E1E1E",
"u  c #511313",
"i  c #541919",
"p  c #630101",
"a  c #6C0000",
"s  c #6A0808",
"d  c #740000",
"f  c #7C0000",
"g  c #631717",
"h  c #6F1010",
"j  c #7A1313",
"k  c #701C1C",
"l  c #422424",
"z  c #4C2424",
"x  c #412A2A",
"c  c #4B2E2E",
"v  c #532121",
"b  c #592626",
"n  c #542D2D",
"m  c #5B2C2C",
"M  c #453232",
"N  c #4B3333",
"B  c #453C3C",
"V  c #4C3B3B",
"C  c #543333",
"Z  c #5B3434",
"A  c #543C3C",
"S  c #5C3C3C",
"D  c #632525",
"F  c #6E2626",
"G  c #632B2B",
"H  c #6C2B2B",
"J  c #732424",
"K  c #7A2222",
"L  c #732A2A",
"P  c #792B2B",
"I  c #623434",
"U  c #6D3434",
"Y  c #643A3A",
"T  c #6A3A3A",
"R  c #723535",
"E  c #7A3131",
"W  c #733B3B",
"Q  c #7B3D3D",
"!  c #364040",
"~  c #3C4343",
"^  c #3F4949",
"/  c #434444",
"(  c #4B4444",
")  c #444A4A",
"_  c #4B4C4C",
"`  c #534242",
"'  c #5B4343",
"]  c #544C4C",
"[  c #5B4A4A",
"{  c #455151",
"}  c #4C5252",
"|  c #535353",
" . c #555B5B",
".. c #5C5F5F",
"X. c #644444",
"o. c #6C4343",
"O. c #624949",
"+. c #6A4A4A",
"@. c #724242",
"#. c #764C4C",
"$. c #794F4F",
"%. c #645353",
"&. c #6B5555",
"*. c #6A5A5A",
"=. c #755555",
"-. c #5C6161",
";. c #616363",
":. c #830000",
">. c #8C0000",
",. c #8F0F0F",
"<. c #930000",
"1. c #9B0000",
"2. c #940B0B",
"3. c #9B0A0A",
"4. c #871414",
"5. c #8E1717",
"6. c #8B1A1A",
"7. c #9A1717",
"8. c #931C1C",
"9. c #9E1A1A",
"0. c #A30000",
"q. c #AC0101",
"w. c #A50C0C",
"e. c #AB0B0B",
"r. c #B30101",
"t. c #BC0101",
"y. c #B30C0C",
"u. c #BC0C0C",
"i. c #A41212",
"p. c #AB1313",
"a. c #A41B1B",
"s. c #AB1D1D",
"d. c #B61111",
"f. c #BB1212",
"g. c #B31C1C",
"h. c #BE1818",
"j. c #822525",
"k. c #8C2323",
"l. c #842B2B",
"z. c #8E2C2C",
"x. c #932222",
"c. c #9A2121",
"v. c #952A2A",
"b. c #9C2A2A",
"n. c #843434",
"m. c #8B3333",
"M. c #803E3E",
"N. c #933434",
"B. c #993030",
"V. c #953939",
"C. c #AB2424",
"Z. c #A22D2D",
"A. c #A23131",
"S. c #C30202",
"D. c #CA0202",
"F. c #C30B0B",
"G. c #CD0B0B",
"H. c #D30202",
"J. c #DD0202",
"K. c #D50909",
"L. c #DA0909",
"P. c #C21313",
"I. c #C91010",
"U. c #E30202",
"Y. c #EB0101",
/* pixels */
"7 7 7 7 7 7 7 7 7 7 7 7 7 7 7 7 7 7 7 7 7 7 7 7 7 7 7 7 7 7 7 7 7 7 6 7 7 7 7 7 7 7 7 7 7 7 7 7 7 7 7 7 7 7 7 7 7 7 7 7 7 7 7 7 7 7 7 7 7 7 7 7 7 7 7 7 7 7 7 7 7 7 7 7 5 7 7 5 7 7 ",
") 7 6 / ^ ~ 7 ~ ~ ! ! ) / ~ ! ! ! ~ / 7 / / / ! 6 6 ~ ! ~ ^ 7 ! ~ ~ ~ ) ) ) ) ^ ) ^ ^ ^ ~ 7 ~ ~ 7 ! ~ ~ B / 7 / / ^ ) ) ) / ) / _ ) ! ~ ^ 7 ~ ! 4 6 4 5 ^ ! ~ / ) ~ ~ ~ ~ ~ 7 / 7 7 ",
"_ S R Q R U R U R U U W W U U R U Y ` ) ( | X.R G U R U T U R U U U R W @.@.W Q Q Q Q W U T U U R T U Z ( / ( _ o.M.M.@.M.@.Q Q @.Q R R R R R U G G G G U U T Q W W U U I U U I C 7 ",
"7 8.U.U.G.D.D.D.D.D.D.G.D.D.D.G.S.1.I ) ) | b.U.U.K.D.D.D.D.D.D.D.D.D.D.G.D.D.D.D.G.D.D.D.D.D.G.D.D.t.2.A ~ ~ ] g.U.U.U.U.J.H.K.H.H.K.H.H.H.D.D.D.D.S.D.G.S.t.t.t.u.t.y.y.r.e.q.J / ",
"/ a.Y.H.S.t.S.H.t.0.r.H.S.0.D.S.q.f z 7 ( } Z.Y.D.r.r.S.q.r.S.0.t.t.1.t.t.r.S.r.r.S.0.q.t.0.r.D.D.S.0.h x ~ ^ B p.J.t.H.H.S.H.D.S.S.H.r.1.D.q.q.D.S.D.S.q.q.t.r.1.q.S.q.t.S.q.<.g 7 ",
"/ C.J.t.0.1.q.r.0.<.1.0.0.<.q.0.:.p & 5 ) | b.J.S.<.>.0.<.1.1.:.1.0.<.<.1.1.r.0.1.1.>.<.q.f <.r.r.1.f w > 7 ( ( p.S.0.r.q.1.0.0.0.1.0.>.:.r.>.>.q.q.r.q.>.1.0.>.:.1.r.:.0.r.>.f u : ",
") c.D.0.>.<.1.>.<.0.1.f :.1.>.f a w & 5 ) | v.H.r.1.>.>.1.<.>.d >.0.1.:.:.<.0.0.>.f >.1.1.f >.0.<.f p q > 7 } | s.S.0.0.>.d a <.1.:.f f >.0.>.f >.1.0.1.>.<.1.:.:.<.1.p :.1.d p r 2 ",
"( c.t.>.<.0.1.f >.1.0.0.>.f 1.f q 9 # 7 ) | v.S.1.0.q.0.>.1.<.d >.0.>.1.>.f 1.>.f :.:.<.1.d >.<.:.d a q > ! ) ` p.r.:.1.:.a f 1.<.a <.:.:.1.>.:.1.<.1.1.d >.0.<.:.<.1.f <.<.d w e : ",
") c.S.1.>.<.<.>.:.>.0.<.:.f 0.:.w 8 % 7 / } v.S.0.0.0.0.<.>.<.>.1.1.f <.:.f 1.>.f f :.>.>.:.f :.<.f p 8 - 7 / ( a.q.d 1.:.f <.<.:.s 1.>.d :.<.1.1.:.>.1.f <.q.1.:.>.1.a >.1.f q $ : ",
") 6.t.1.>.>.>.>.>.>.1.f d <.<.:.w 8 @ 7 ) } l.t.S.1.>.0.>.:.>.>.1.<.d :.f f 1.<.:.d :.<.:.:.f :.<.f w 0 - 5 7 ( 7.0.:.1.>.:.1.1.f d <.:.d d >.0.0.:.>.0.:.<.0.<.:.<.1.a >.1.:.w $ : ",
"( k.r.:.<.0.1.f >.1.1.f f <.f a q 8 @ 7 ( ) j.S.S.1.<.1.f :.<.f <.<.d <.>.d <.>.:.d f >.1.d :.>.:.d p q > 5 ! ( 7.r.<.0.:.a :.1.<.f :.f d :.:.:.1.>.<.<.d >.1.:.:.<.1.f <.<.d 9 # : ",
"( k.r.1.:.>.>.p d :.:.a a f :.d w 8 % 5 B } P 0.0.>.f f w d >.d f :.:.:.a w f >.:.d f >.f w f >.d d p 0 > 3 7 ( 7.q.f :.a p d f d w :.d w d a d >.a a f q f :.s p a :.:.:.:.f q # : ",
") K 0.>.d s f w q w p q q w a a w 8 % 3 7 _ H >.:.d a s q p d s p a d a w q p a a w a p w 9 w a w p q . > 3 7 ( 6.<.a a p p a a s q d a w a p s d q w p q a a p q w s d p p a 9 # : ",
"( D s p w w w 0 . . . . . . . . . . @ 5 7 ) G d p w q q q q q q q q q 9 q q q 8 . . . . . . . . 0 . . o - 5 ~ ( k d s q w w w w w w w w w w w q q q q q 9 q q q 9 q q q 8 . . . # : ",
") ( N 1 > > > > > - - - > - + + + + = : 7 _ ] N 1 > > > - > > @ @ @ + @ @ @ - - - + + + + + - - - > - - : 7 ) } V 1 > > > > 1 > > > > , < , > > > @ @ @ @ @ @ @ > > > - > - - - - : ",
"} ^ ! 3 3 3 4 6 ! 6 ! ! 6 3 2 ; 2 2 3 7 ~ ) ) ) 7 7 ! ! ! ! 6 4 2 2 2 2 4 ! ! ! 6 4 2 2 ; 3 6 6 ! ! 6 6 6 ) _ ) ~ ~ ^ ~ ^ ~ ^ ^ ^ { ) ) ^ ^ ^ ~ 6 4 6 2 : 3 3 6 4 6 ~ ! ! ! ! ~ 6 3 ",
"@.U m m m m m S Y Y I T Z n C m n m m m I n V ) ) ) ' T W U T T I m m m U o.T T T T m n m I T I Y I T Y T Y Y m Z T o.o.o.T o.#.#.#.$.#.#.T o.T T S A / 7 / ` @.I U o.T I T T o.T m ",
"J.G.S.D.F.t.r.r.y.r.e.r.r.e.r.r.q.e.e.r.e.1.J _ | { E L.J.K.D.D.S.F.S.D.S.F.t.t.y.u.t.t.u.u.t.u.r.e.r.e.r.y.y.e.r.r.r.y.y.e.y.r.r.y.y.y.r.y.r.y.e.0.F / / ) Q J.U.H.F.D.D.F.D.D.D.D.",
"D.r.0.0.t.t.0.<.q.q.1.0.0.1.r.1.<.r.0.0.q.d y / _ } m.U.q.q.S.D.r.q.S.1.<.q.S.r.1.0.S.S.q.r.q.1.<.1.0.q.1.0.q.1.q.0.1.S.0.<.S.q.1.q.t.D.S.q.t.S.q.d y 7 / ^ P U.U.t.0.t.q.q.t.q.q.t.",
"0.<.>.>.1.1.>.:.<.<.d >.<.>.<.f f 0.1.<.:.9 # 7 / } n.J.1.:.0.r.<.:.q.:.f >.q.>.f <.0.1.>.<.<.>.f >.<.<.<.<.>.<.1.<.:.1.>.:.q.1.>.>.0.r.q.>.q.r.>.q & 7 ) ^ L J.D.1.:.0.<.>.1.<.1.0.",
">.<.1.>.1.<.f :.>.:.a <.1.:.d d >.0.0.>.a 9 # 5 / ) P D.r.>.f 1.>.>.1.0.<.>.1.:.d 1.:.a d :.<.1.:.<.>.:.1.f d 1.0.1.f a :.1.>.1.<.f :.<.1.f <.<.a 9 & 7 / _ W S.r.<.>.1.<.:.:.1.0.<.",
"d <.0.0.<.<.>.d >.<.d :.>.:.>.f f 1.1.:.a 9 # : 7 ^ E S.<.>.1.>.<.>.>.<.f a >.:.:.f >.<.f a >.1.>.:.f a f :.:.>.0.>.p f :.>.1.:.:.<.f >.0.3.:.d a 9 # 5 ~ _ R t.1.>.1.0.0.<.f 1.<.:.",
">.>.<.<.<.<.>.d :.>.:.:.>.<.1.f a 1.:.d a 9 # : 7 ! E D.:.:.0.1.>.>.<.f d f <.:.d d 1.<.d d <.0.:.:.f d >.:.f <.1.f w >.:.f 1.:.f <.f >.1.>.>.:.a 9 # : 7 / R S.0.<.<.0.1.<.<.1.<.f ",
"1.<.>.:.1.1.:.:.f :.:.f >.0.<.f f 1.:.d a 9 # 3 7 ) E D.<.:.1.0.>.>.1.f d :.1.f p d <.:.a :.1.<.f f f :.1.:.d 1.>.d a <.:.d 1.:.f :.d >.1.d <.<.a 9 # : 7 ! U t.q.<.>.0.:.:.0.<.>.f ",
"d <.<.a <.<.d :.:.:.<.d f 1.f d >.1.0.>.a 9 # 5 / } n.D.r.:.a 1.>.:.1.>.d a :.a p :.f a a <.<.:.f p a f 1.:.d :.a p :.1.:.a :.1.>.d :.1.1.d <.<.a 9 O = 5 ^ U q.<.>.0.0.d d 1.>.:.:.",
"d <.1.a d d w f f f <.f f 1.d p f 1.>.:.a 9 # 3 / } W t.r.>.a >.f a :.<.:.d :.d p f f d p f <.>.f f f d >.f d :.f d d 1.:.d f >.f w d >.<.d :.>.a 9   ; 7 _ U q.1.<.>.:.p p :.>.:.f ",
"p f :.w p w 9 p p a f a a f a w w f a w w 9 # 7 / } W q.1.:.d f p p a :.f a f d a a f d p s f :.a f f p d d a f f a w f d s a d a q p f :.a d d w 9   = 7 _ I q.1.f a s w q p f d p ",
"0 8 9 9 8 9 9 9 9 9 9 9 9 8 9 8 9 9 8 8 . . & 7 ) } T 2.s w w w p w p w s w s w q s w p p w q q q q q q q q q q q q q q q q q q q q q q q q q q 8 . X ; / ^ m 2.d 9 8 w 9 0 8 q q . ",
"- % > - @ @ > > > - @ + @ @ > > > - @ + @ @ < 7 ( / B S c 1 1 , , , , , > > > 1 1 1 x x 1 1 , , > > > @ @ @ @ @ @ @ > > , > @ @ @ @ @ % , > > , - > : 7 / _ ] S l > - , , > - , , - ",
"~ ! ! 6 3 2 3 6 ! ! 2 4 3 2 4 ! 6 3 ; ; 2 3 7 ~ ) / ) ) ~ ! ! 6 3 3 4 3 4 4 3 7 7 ~ 7 ^ ~ ^ 4 6 ~ ! 4 2 2 ; ; ; 2 3 4 6 6 6 6 3 2 ; ; 2 4 6 6 6 6 ! ! ~ _ _ ) { ! 3 3 4 6 ! 6 6 7 7 ",
"| +.o.T Z n n S o.Y Z Y Y n S Y S n n c n n C I S Y X.S S S S Z N n Z n C C N B ) ) _ ' Y o.Z Z o.X.I Z n n n n Z Z Z Y S T X.Y C n n n A S S S Y X.Y Y X.Z Z X.S C n Z X.X.S S ` ) ",
"| Z.L.L.D.u.D.F.F.F.S.F.F.F.r.e.e.e.q.e.e.e.e.e.e.y.e.r.e.e.r.e.q.e.q.e.e.q.3.G _ | } m.L.L.G.S.F.F.S.F.F.S.F.F.S.F.F.F.t.e.e.e.e.e.q.e.e.r.r.e.e.e.y.e.r.e.e.e.e.q.q.e.e.y.e.1.J / ",
"| C.U.r.t.D.S.q.t.t.0.t.t.0.r.q.0.r.q.0.t.S.r.0.r.q.0.r.0.q.S.t.1.<.t.S.r.>.a z ^ _ } B.Y.J.q.q.H.S.S.t.q.r.t.S.q.r.S.r.r.r.1.>.<.q.0.1.<.1.q.0.1.1.0.r.q.0.0.r.1.1.0.q.<.>.q.f u 7 ",
"_ a.J.1.1.q.q.>.1.q.:.1.<.:.0.1.<.0.<.<.0.t.0.>.<.<.<.1.<.1.q.1.f f q.q.1.d 8 & 7 ( | N.J.S.>.>.S.1.1.0.:.>.1.1.<.<.0.>.1.0.d a :.1.:.f f :.1.1.f >.<.1.1.:.>.1.>.f >.1.f d >.q O : ",
"7 a.U.q.<.<.0.<.1.1.f d f >.0.0.1.>.<.<.>.0.<.f d >.<.f <.1.:.a f >.1.:.<.1.9 % 5 )  .N.H.S.0.1.0.f :.1.d f :.d >.<.>.a >.<.a f <.1.d :.1.d >.<.:.1.<.>.1.f f 1.1.>.:.1.>.f d 9 $ : ",
"/ x.r.f >.0.1.:.:.:.p >.:.d 1.>.:.1.<.>.<.0.>.d f 1.<.d :.1.<.:.d d :.<.>.d 8 # 7 } -.V.D.S.1.>.1.:.:.1.a :.<.d >.1.<.f >.1.f <.1.>.a :.1.d d >.1.1.>.f <.>.>.0.0.<.:.1.f p a 9 # : ",
") k.r.>.<.1.1.a f :.w f :.f 1.<.f >.:.>.1.1.:.d f :.>.>.f >.0.>.d a >.>.f w 8 # 7 | ..V.D.0.<.>.>.>.<.>.a f <.:.:.<.1.f :.>.f >.1.<.d :.<.d d :.<.1.>.:.1.:.:.0.<.>.:.0.:.p a 9 # : ",
") 6.t.0.>.<.<.w f <.p a f :.1.<.:.f d >.1.:.f f a f >.1.a :.1.>.a f 1.f a p 8 @ 7 |  .m.D.>.>.<.f >.<.>.d f <.<.f :.1.d f :.p d >.<.f :.:.a f :.f 1.<.:.1.:.f 1.:.f :.1.>.f d 9 # : ",
"| k.q.f a :.<.w a >.f <.:.d 1.:.a <.d f 0.>.d a :.<.1.>.a :.1.a f :.:.f <.<.9 % 5 ( } m.H.t.<.f 1.f :.1.:.<.1.>.d :.1.a :.<.p a d d w f <.w :.>.p <.f p 1.0.<.>.d w w d :.:.a 9 # : ",
"_ x.t.>.a a :.a a d a f d w f d d <.d d <.f d d >.:.:.f a d :.:.f :.>.f :.f 9 # 3 / } z.D.t.>.f 1.f :.>.d f :.f d f :.a f >.a d d w f f d p <.>.w d :.a d <.<.d :.a q :.:.f a 9 # : ",
") 6.t.0.d p a d a p w p p w p a d f a a f a a d f a p s w w a :.d a :.a p w 8 # 3 7 _ n.t.1.f d >.d d d p p a a a a a p d f d f a w :.f w a :.f q p d d q d f w :.d q :.:.d p 9 $ : ",
"_ K 0.>.d w w p p w p p p w p p p p p p p p s w 9 9 9 9 9 9 9 q 9 9 9 9 8 8 . % < 7 _ E <.a w p p p p p w p p w p p p w p w w p w q q q q q w q q q w q q w q q w 9 8 q a d q 8 # : ",
") S Z n l , , , & , , , , , , & , , & & , , , , > % % , 1 1 1 1 > % , > > - > - 5 / _ ` Z 1 & , 1 , , & , & & , % @ # # @ % % # , l 1 1 x , @ @ @ @ @ , , & & , , > > & , & , > - : ",
"_ } { ^ ! ! ! 6 6 6 3 4 4 3 3 3 3 7 6 ~ ~ ^ ! ! ! ! ! 6 ! ! ! ! 6 4 3 3 3 4 3 3 6 ^ _ { ^ 6 6 6 ! 3 4 ! 6 ! ! 7 3 : ; : : 2 2 4 ! ^ / ^ ~ 6 3 2 : ; 4 4 6 6 ! ! 3 4 ! 6 6 4 6 ! 6 3 ",
"O.O.O.X.X.O.X.' S A c C C c M M 7 / } %.=.=.+.+.O.+.X.S S S S C C N c c N C N c c C X.X.S S S ' X.C A X.' ' X.` ( ! 7 / B C C S X.X.O.X.' S S C c C S S S S ' X.N A X.' S S S X.' N ",
"y.e.y.e.e.d.e.e.e.e.e.e.w.e.3.H / 7 _ Q f.I.P.F.F.F.F.u.F.F.u.e.e.e.e.e.e.e.w.q.e.e.e.e.e.e.e.e.e.w.e.e.e.e.e.2.Z _ | | l.t.K.F.F.u.F.F.F.F.t.u.u.S.u.u.e.e.e.e.e.e.e.e.e.e.e.e.e.q.",
"r.r.r.r.r.r.q.S.S.t.t.S.S.q.f v / / ~ P H.S.0.0.t.0.0.t.t.q.1.q.q.0.r.r.0.<.r.q.<.<.0.r.q.<.0.r.r.1.1.q.0.q.0.d c / _ | b.H.S.r.q.t.0.r.t.t.0.0.t.q.q.q.1.q.q.<.q.q.0.r.0.0.r.1.1.r.",
"0.0.0.1.q.0.1.t.r.0.q.r.q.>.9 # 7 / ^ J D.0.f f <.:.:.0.1.:.f 1.>.>.0.1.:.f <.>.f d <.0.<.p :.0.<.f >.1.f >.>.8 1 7 _ | c.D.0.f :.1.f :.0.1.d f 1.:.:.:.f >.<.f <.<.:.1.:.:.1.f :.<.",
"0.>.:.>.1.0.1.0.<.>.0.<.:.a 9 # 5 / } n.S.:.:.1.:.:.<.1.:.>.0.1.f :.0.<.>.:.d f :.:.1.1.:.a >.1.d :.<.1.a >.>.8 1 / | | b.D.q.d d 1.f >.1.>.d f 0.<.<.1.:.:.>.:.<.:.f <.>.:.<.>.f d ",
"<.:.:.1.1.<.:.1.>.:.1.1.>.a 9 # 5 / ^ J S.f :.0.1.:.>.1.1.>.:.1.:.f 0.>.<.<.p :.>.p :.>.>.<.<.:.d >.1.1.f <.>.9 > ~ | -.A.D.q.f :.1.f >.0.>.>.<.<.<.0.1.:.>.>.f <.<.:.1.<.>.>.1.>.a ",
"<.>.:.<.1.<.>.0.<.>.>.<.>.a 8 # 7 / ) P S.>.f >.0.>.:.1.<.f a 1.>.f <.>.>.>.d <.<.w :.<.:.>.:.:.:.:.<.<.>.<.:.8 1 / | ;.Z.D.<.>.1.1.d >.1.f <.0.<.<.<.<.>.<.<.:.>.<.<.1.1.>.f >.:.f ",
"0.<.:.:.1.1.<.0.1.>.:.>.:.a 9 & 7 ) } n.D.0.f f 1.:.:.1.>.a a >.>.>.>.>.:.d :.<.>.p >.<.:.a f <.<.f f >.1.<.d 8 > / | -.B.S.>.<.0.1.:.>.<.d >.0.0.:.f :.1.>.>.1.<.>.<.1.>.:.f d f :.",
"0.<.:.:.1.<.:.1.<.:.<.1.>.a 9 & 7 _ _ E D.:.:.<.:.a d 1.1.:.d :.>.<.1.>.<.<.f :.f q p :.>.a :.1.1.f :.1.>.<.>.8 > / _ | v.S.0.>.>.0.1.>.:.<.<.<.>.f >.<.:.<.<.f >.<.>.1.>.:.:.1.>.d ",
">.:.f :.1.>.f :.>.>.:.>.:.a 8 & 7 / _ H q.d :.0.<.a a 1.<.:.f <.:.>.0.:.>.1.a f f p f >.>.a >.1.:.:.<.0.d :.f 8 , 7 ) | v.S.0.f f 0.<.:.<.0.<.>.<.>.1.1.:.1.<.d <.>.:.1.>.:.1.0.<.d ",
"p p a f :.f p a d :.a p p w 8 & 7 / ) H <.a f <.<.a d <.f d d >.f f >.a d >.w a d p :.>.f p d f a f >.>.a a p 8 @ 7 _ ] l.t.1.a d <.d f <.<.:.:.<.:.>.>.f >.>.d :.f d :.f f <.<.f p ",
"8 . 8 9 q 9 9 9 q 9 q 9 9 8 8 # 7 / ) I 3.a p p p p p p p p p s p p w q q w w w w w w w q w w w w w w w q 9 8 . % 6 ) ) K 1.a w p p p s p a s p a p s p p p p p s p p w q w w w q 8 ",
"% @ % , > % % & % % % & @ @ > - 5 / _ ' Z l & # # # # # & & t l x l 1 & # # @ # @ # O # & & & & & & , & , & @ % < 7 ) ( S m , & & & & l l x c c l & & & # # # # & & & & & , & % % % ",
"! 6 6 6 3 4 4 3 3 3 4 6 6 3 3 2 5 ~ _ } ) 6 2 * ; 2 2 3 6 6 6 ! ^ / ^ 6 4 2 ; ; ; ; 2 6 6 6 7 7 6 4 2 4 3 4 6 3 7 ^ ) _ { ^ ! 3 6 7 6 6 ^ ) } } ) 6 6 6 3 ; 2 5 6 6 6 6 6 6 3 6 7 3 ",
"| ' ' O.C V A N N N S ' C M N M M M C ` A M M c M C ` S A A ` ` ' [ O.' A A N c M M ' ' V / ) _ } V C S N V A N C ` ' O.' ' O.C V [ ` ' O.%.&.&.[ ' ` A ` N V [ ` ' [ ` ' ` N ' ` 7 ",
"7 k.K.f.y.u.u.u.y.u.u.f.e.w.w.e.w.e.i.w.w.e.w.w.w.i.i.e.i.w.e.w.p.e.p.w.i.w.e.3.e.w.i.w.4.N ) _ B a.G.G.u.u.u.u.f.u.u.f.f.f.f.e.w.p.e.e.p.e.p.p.p.e.p.w.w.w.w.e.e.w.p.e.p.i.w.3.L / ",
") a.J.S.r.r.r.t.q.0.t.S.r.0.q.r.q.0.q.q.1.0.q.q.<.0.q.0.r.q.q.r.1.1.q.1.1.r.r.q.1.1.q.1.s x ) _ ( P.Y.D.S.q.0.t.q.q.t.1.r.t.0.r.0.<.q.q.0.>.0.q.0.1.0.r.0.0.0.r.0.0.q.1.1.q.r.:.i 7 ",
"| b.D.0.>.:.<.1.f d 1.0.<.:.>.1.1.f <.>.a :.1.<.a >.<.f <.<.>.1.d f 1.d :.0.1.>.f d <.f o < ~ _ [ h.D.1.0.f d <.d d <.p f <.d >.>.p <.<.d a f >.>.d :.1.:.:.>.1.:.:.<.f f >.<.w # : ",
"_ c.D.0.d f 0.>.d d 1.<.>.<.:.<.1.a f f p <.0.>.a >.>.p f <.<.>.d d 1.:.>.1.:.<.<.d >.d . < 7 ) ( d.t.<.1.:.a :.a a f p d :.p :.>.f 1.:.a <.f f 1.f f :.d <.1.>.f >.1.1.f d :.q # : ",
"( 8.S.<.a f 1.f d f f d :.1.d >.1.f f f :.1.>.f :.>.>.f p d >.1.a a <.d f >.a :.>.:.:.p . - 7 ^ ( p.t.>.0.:.p a f >.>.f p a :.>.d a <.<.>.d :.>.f d :.<.d >.1.:.<.>.:.>.d d <.w # : ",
"/ 8.D.<.f >.1.f d f :.d :.<.f <.1.:.>.:.f <.>.f :.>.>.d a f >.:.d f <.d f >.:.>.>.f f w o - 5 7 ( g.S.<.>.:.f a f >.0.f d f <.>.d a :.<.:.a f >.f f :.<.:.<.<.>.<.:.d >.f :.1.w # : ",
"7 8.D.0.>.>.1.>.d d 1.>.f :.>.1.1.:.<.>.p f <.<.a <.>.p f <.<.a f 1.1.:.>.0.1.1.<.d f p . - 3 7 ` p.S.1.a :.1.>.a f <.p :.<.d >.>.f f a p :.d f 1.:.:.>.<.>.>.<.:.d f 1.>.>.1.w # : ",
"_ c.D.0.f f <.1.f d 0.f f <.d >.1.a <.<.d <.>.a p <.>.w f >.:.<.>.:.:.d f <.d :.:.d <.f o + : ~ ] d.S.1.a p f 1.f a f w :.<.p >.>.p >.d p <.f a :.f >.<.f f >.1.:.:.<.>.f d d q # : ",
"( x.D.0.d d <.>.f f >.f >.1.f >.1.f >.>.:.0.<.f a :.>.a d a f 0.f d <.d :.<.d >.>.f 1.f . + : 7 | g.t.>.>.d a <.d d >.p d >.:.>.f w >.:.a <.f d <.f >.1.d :.<.<.>.>.>.<.d d :.q # : ",
"7 6.t.1.a f <.a d f d f >.>.f :.>.:.f f f >.>.:.p a f d w q a >.p p >.d f :.d :.:.d >.d . + 5 / [ a.0.d <.f a f a f <.p a :.<.:.a w :.f d f a a >.d f >.a :.>.d :.f a >.d d >.q # : ",
"| j.1.a p p a p p p p p p a p w q q 9 q q q q q 9 q 9 q 9 9 9 q q 9 q q 9 q q q q 9 q 9 o = 7 _ ] 8.>.p p p p a p p a p p p p p w q w w w w q 9 q q q q 9 q q q q q 9 q q 9 9 8 # : ",
"/ A b t t & & & & & & & & t & & % 1 , , , % @ O # O @ O % % # & @ O O @ O @ # , % @ O # % : 7 ) / Z b & & & & t & & & $ # # # $ & & 1 l & & # @ % # # % # % @ @ @ # % & # % % @ @ : ",
"~ ~ ^ 6 3 4 6 5 6 7 5 6 5 6 4 4 7 ) ) ) / 7 5 2 : ; < ; 7 7 6 3 2 = ; = ; : 3 6 5 2 ; : 3 6 ~ / ~ ^ ! 7 5 6 5 6 6 6 5 3 2 ; 2 3 7 ~ / / 7 7 : 3 4 6 6 5 3 ; * * * = 2 3 4 6 6 6 7 6 ",
"[ A V [ V A [ ' ] [ ` ` V ` ` ' O.*.*.&.[ ` ' ' M ( _ ) | ] ` C B c M M B V ` [ [ ` ` V B V ( ' [ V V [ ` ` ` ( ` ( ` A ` A ` ` ] [ | | _ _ ' ` ` ` ` A B x 1 @ @ > 1 M V ` ` [ ' ( ",
"f.y.d.f.y.y.d.i.i.i.w.i.i.i.i.i.a.p.a.a.i.i.i.i.4.I } ] _ l.I.I.u.y.e.y.y.y.y.f.f.d.f.e.w.i.w.i.i.w.i.i.i.i.w.i.w.i.i.i.i.i.i.i.i.6.S / / ] b.I.d.y.d.d.y.y.q.3.3.3.3.w.w.i.i.i.i.i.",
"q.t.r.0.t.S.t.1.0.q.<.q.q.q.t.r.0.r.0.0.r.0.q.q.f z ^ _ ) v.U.H.D.S.S.S.r.q.S.q.0.t.r.r.q.1.q.q.1.q.r.q.r.0.1.r.1.0.q.1.0.q.0.<.>.d N ! / | g.U.S.q.q.t.S.q.0.r.0.0.r.1.q.q.<.q.q.1.",
":.<.>.p >.0.1.d f :.d >.>.:.r.1.f 1.d d 1.f >.>.9 % 7 / ) k.D.0.1.0.1.0.:.a <.p w 1.>.>.<.d >.>.a >.1.1.1.f d 1.d f <.p f 1.d a w 0 < / ) | s.S.<.d d :.0.d d 1.f :.1.f >.>.d <.>.p ",
"0.>.f d <.1.:.1.:.d >.:.d d 1.:.p f a d >.a f f 9 @ 7 ) ) k.D.>.<.<.f 1.>.p d w w :.>.>.:.1.<.:.a f <.<.d d :.:.f f :.p f <.a >.f 0 < 7 _ | s.r.d <.f a 1.f f 1.f f >.1.:.:.1.<.a q ",
"q.>.d a f <.<.:.:.f f f :.>.>.a p <.:.d d f :.d 8 % 7 / / k.S.:.:.:.d 1.>.p d a f >.f :.<.d :.<.>.d :.<.a f >.d f d a d :.>.a f a 8 - 7 _ | s.r.a <.>.a f >.1.0.>.f f <.f a f f d d ",
"<.<.d w d >.>.p :.<.p f >.1.>.a p <.>.d p <.>.p 8 % 5 / ^ 6.D.<.d a d 1.:.a :.f :.1.d f <.w f 0.<.f f <.a >.<.a :.:.p d :.f d a w . - 7 _ | s.t.f >.f a f <.1.<.:.:.:.f :.f p a :.<.",
"f >.>.p :.>.p a >.>.a <.<.:.1.f p f f a d <.>.w 8 % 7 / ~ k.D.0.a w d <.:.d 1.a p 1.:.:.>.a >.<.a f :.f a :.<.a >.1.:.p p f <.d w . > 7 _ | s.D.1.d p a 1.<.:.d d :.1.d >.>.a a :.0.",
"a >.<.d <.>.a >.:.d :.1.>.d 1.<.a p d >.<.>.:.d 8 % 5 ) ~ k.S.a f <.<.f f <.>.d d >.a a f w :.<.a >.>.a d :.f p :.>.d w a f f a q . - 7 ( ] a.r.f >.>.:.0.>.:.<.>.f f d a f <.d :.q.",
"p >.1.:.>.f a 1.>.d f <.:.a :.f a f d >.0.f f :.9 @ 7 ( / k.t.w :.0.<.:.:.>.f d f :.p p :.w f :.p >.<.d a :.>.d d f :.w f >.a a p . - 7 ~ ( a.r.a <.<.d :.a f 1.:.:.:.d w p :.>.:.f ",
"p >.<.f :.d a :.1.>.a :.:.a f a a 1.f d <.d :.:.8 % 7 / _ k.t.a f >.d <.:.a f f f :.w d <.a f :.w :.<.f a :.1.>.a f 1.a :.>.p f d 8 - 3 7 ( a.r.a >.f w d p d 1.f >.1.d p p a <.:.q ",
"f >.>.p >.>.p a f f a d :.f 1.d p 1.f a d :.:.d 8 % 5 / } z.S.1.a w d 1.>.a <.d w :.a f 1.a :.<.a p :.<.a d >.1.d d :.d f :.a f a . - 5 7 ( a.q.a a p p <.d d 1.f :.1.f >.:.a <.>.a ",
"p a p q a p w q w p w w p p a p w a p q w p w q 8 % 7 ) } K q.d q 8 q p w q a w q p w p a w p a p q p a w w p d p w p w p p w w q 8 @ 5 / ] 8.<.q 9 9 q a p w a p p a p a a w a a w ",
"o 0 0 0 0 0 0 0 0 0 0 0 0 0 0 0 0 o 0 0 0 0 o o o @ 7 / _ U j e $ o o o o o 0 0 0 0 0 0 0 0 0 o 0 0 0 0 0 0 0 o o o . 0 o o 0 X X X + 3 ) ] P h o X o 0 0 0 0 o o o o o o o . o o o ",
": < : < : : < : : : < : : : : : < < < < < : < : : : 7 / | ] ( 7 7 < 5 : : : < < < < : : < : < : < < < : < : : + = + = + + = : : = + = ; 7 ) _ B : : < < : : < : - = = + + = = : < < ",
"7 7 / 7 / B 5 5 5 7 7 / / ~ B / / ) ) / 7 7 B ~ / 7 / | | | } _ _ ) / B ~ / ) / 7 / / / ) / B 7 7 7 7 / ~ 7 7 5 3 3 7 5 3 5 7 7 6 7 < 7 / ] _ / 7 7 B ) / / 7 / 7 7 7 3 5 7 7 ~ ~ / ",
"/ _ | ( } | / / ( ) ] _ | _ | _ | |  .] ) _ _ | _ | | | | | | | | | ] } _ | | | _ | _ | | | } _ / _ | _ _ ] ) ( / ) _ ( / ( _ _ _ _ ) ( _ | | _ _ ) ] | | _ ] } } ] ) ( _ _ _ } _ ] ",
"| | | | | | | | | | | | | | | | | | | | | | | | | | | | | | | | | | | | | | | | | | | | | | | | | | | | | | | | | | | | | | | | | | | | | | | | | | | | | | | | | | | | | | | | | | "
};
